<svg width="149" height="180" viewBox="0 0 149 180" fill="none" xmlns="http://www.w3.org/2000/svg">
<path d="M148.048 59.9183C148.048 52.5009 148.048 48.7922 146.97 45.4714C146.016 42.5331 144.456 39.8279 142.39 37.5307C140.056 34.9345 136.846 33.0771 130.426 29.3621L92.1806 7.23141C85.7399 3.50449 82.5195 1.64103 79.095 0.911728C76.0651 0.266454 72.9332 0.266454 69.9032 0.911728C66.4787 1.64103 63.2584 3.50449 56.8177 7.23142L18.5725 29.3621C12.1525 33.0771 8.94245 34.9345 6.60804 37.5307C4.54254 39.8279 2.98242 42.5331 2.02866 45.4714C0.950745 48.7922 0.950745 52.5009 0.950745 59.9183V104.356C0.950745 111.76 0.950745 115.462 2.0253 118.778C2.9761 121.712 4.53147 124.415 6.59106 126.71C8.91875 129.305 12.1199 131.165 18.5223 134.883L43.2138 149.225C44.8986 150.204 45.741 150.693 46.3535 151.376C46.8955 151.98 47.3049 152.691 47.5551 153.464C47.8378 154.336 47.8378 155.31 47.8378 157.259V169.837C47.8378 174.012 47.8378 176.1 48.7146 177.307C49.4795 178.361 50.6551 179.041 51.9498 179.178C53.434 179.336 55.2432 178.294 58.8615 176.212L83.2624 162.168L130.427 134.874C136.847 131.159 140.056 129.301 142.391 126.705C144.456 124.408 146.016 121.703 146.97 118.765C148.048 115.444 148.048 111.735 148.048 104.318V59.9183Z" fill="#2845C1"/>
<g filter="url(#filter0_d_628_10457)">
<path d="M121.081 62.7974C121.081 60.2219 121.081 58.9342 120.707 57.7811C120.375 56.7609 119.834 55.8216 119.116 55.0239C118.306 54.1225 117.191 53.4775 114.962 52.1876L80.6395 32.3267C78.4032 31.0327 77.285 30.3856 76.0959 30.1324C75.0439 29.9084 73.9564 29.9084 72.9043 30.1324C71.7153 30.3856 70.5971 31.0327 68.3607 32.3267L34.0382 52.1876C31.809 53.4775 30.6944 54.1225 29.8838 55.0239C29.1666 55.8216 28.6249 56.7609 28.2938 57.7811C27.9195 58.9342 27.9195 60.2219 27.9195 62.7974V102.514C27.9195 105.107 27.9195 106.404 28.2984 107.564C28.6337 108.59 29.182 109.534 29.9073 110.333C30.7272 111.236 31.854 111.879 34.1076 113.163L68.4302 132.726C70.6429 133.987 71.7493 134.618 72.9239 134.865C73.9634 135.083 75.0369 135.083 76.0763 134.865C77.251 134.618 78.3574 133.987 80.5701 132.726L114.893 113.163C117.146 111.879 118.273 111.236 119.093 110.333C119.818 109.534 120.367 108.59 120.702 107.564C121.081 106.404 121.081 105.108 121.081 102.514V62.7974Z" fill="white"/>
</g>
<path d="M70.691 65.5006H78.7182V112.218H70.691V65.5006Z" fill="#C83F49"/>
<path d="M56.0717 81.0001H48.0445V61.4785H103.289V69.5195H56.0717V81.0001Z" fill="#C83F49"/>
<defs>
<filter id="filter0_d_628_10457" x="21.9195" y="28.9644" width="105.161" height="117.064" filterUnits="userSpaceOnUse" color-interpolation-filters="sRGB">
<feFlood flood-opacity="0" result="BackgroundImageFix"/>
<feColorMatrix in="SourceAlpha" type="matrix" values="0 0 0 0 0 0 0 0 0 0 0 0 0 0 0 0 0 0 127 0" result="hardAlpha"/>
<feOffset dy="5"/>
<feGaussianBlur stdDeviation="3"/>
<feComposite in2="hardAlpha" operator="out"/>
<feColorMatrix type="matrix" values="0 0 0 0 0.0470588 0 0 0 0 0.0470588 0 0 0 0 0.0509804 0 0 0 0.08 0"/>
<feBlend mode="normal" in2="BackgroundImageFix" result="effect1_dropShadow_628_10457"/>
<feBlend mode="normal" in="SourceGraphic" in2="effect1_dropShadow_628_10457" result="shape"/>
</filter>
</defs>
</svg>